<svg version="1.1"
      xmlns="http://www.w3.org/2000/svg"
      xmlns:xlink="http://www.w3.org/1999/xlink"  id="snapshot-80020" width="250" height="250" viewBox="0 0 250 250"><desc>This image was made on Patterninja.com</desc><defs>
<!-- image 22835 -->
<g id="transformed-22835" data-image="22835" transform="translate(44.400000000000006, 46.510000000000005) rotate(0, 42.5, 41.5)"><g><svg version="1.1" width="85px" height="83px" viewBox="0 0 85 83"><g id="original-22835"><svg xmlns="http://www.w3.org/2000/svg" id="Layer_2" viewBox="0 0 327 321.1" xmlns:xlink="http://www.w3.org/1999/xlink" version="1.1" preserveAspectRatio="xMidYMid meet">
  <path d="M132.3 129.2c.4.2.5.4.2.9-.1.1-.2.3-.3.4-.7.5-1.3 1-2 1.4-.3.2-.5.4-.5.8 0 .3-.1.5-.1.8-.8 3.6-2.2 7-4.6 9.9-1.5 1.9-3.4 3.3-5.7 4.1-2.2.8-4.4 1.1-6.7 1.2-.1 0-.2 0-.3.1h-2.6c-.1 0-.2 0-.3.1h-.9c-.4 0-.7-.1-1.1-.1-.9-.1-1.7-.2-2.6-.3v-.1c.7 0 1.4.1 2.1 0 1.9 0 3.9-.1 5.8-.2 1.8-.1 3.6-.5 5.4-1.1 1.9-.6 3.3-1.8 4.6-3.2 2.4-2.7 3.9-6 4.7-9.5.2-.7.2-1.4.4-2.1 0-.2 0-.3-.2-.4-2.2-1.2-4.5-2.1-7-2.6-2.1-.5-4.2-.6-6.3-.4-3.5.4-6.4 1.9-8.9 4.3-2.3 2.3-3.9 5.1-5.1 8.1-.3.8-.6 1.6-.9 2.3-.1.3-.2.5-.4.7-.6.7-1.8.7-2.4 0l-.1-.1v-.1s.1 0 .1-.1c.5-.6 1-1.3 1.4-1.9.1-.1.1-.2.2-.3.8-2.1 1.7-4.2 2.9-6.1 0-.1 0-.1.1-.2-.1.1-.2.1-.2.1-1.1 1-2.1 2.1-3 3.2-.1.1-.2.1-.3.2l-.1-.1c.1-.1.1-.3.2-.4 2.2-4.2 5.3-7.7 9.3-10.3 2-1.3 4.2-2.3 6.5-2.9 1.4-.4 2.9-.7 4.4-.8.3 0 .5-.1.8-.1h.7c.1 0 .2.1.3.1h1.3c.1 0 .2 0 .3-.1h.7l.1.1c1.4.2 2.8.3 4.2.5.5.1 1 .2 1.4.3v.1c-1.8.3-3.6.6-5.4.8.1.1.2.1.2.1.7.1 1.5.3 2.2.4 1.8.4 3.6 1 5.3 1.7.8.1 1.5.4 2.2.8z" fill="rgba(52, 73, 94, 1)" stroke="none" id="XMLID_1_"/>
  <path d="M163.5 0C73.2 0 0 73.2 0 163.5 0 238.7 50.7 302 119.8 321.1L118 316l-7.3-11.8-3.7-10.6-2.3-15.1-1.5-15.1 1.5-15.4 3.6-16.9 10.5-17.6 6-11.4s.2-8.1-.9-10.6-2.4-4.2-4.6-5.3c-2.2-1.1-6.9-2.4-10.1-2.9-3.2-.4-14.2-1.2-14.2-1.2l-17.8-.8-16.9-1.6s-2.2-.2-3.9-.9c-1.7-.7-3.1-2.8-3.1-2.8l-2.4-3-1.4-1.8-3.5-5-.9-2v-1.7c0-.4 3.4-1.4 3.4-1.4l8.1-3.1 9-4.5 5.9-5.1 4.8-5.7s3.5-5 4.8-6.9c1.3-1.9 3.9-8.9 3.9-8.9s4.2-7.6 6-9.6c1.8-2.1 2.8-2.1 3.7-3.6s.2-11.6.2-11.6l-.2-18.4.3-13.9-.7-9.6s-.3-4.9-1-8.3c-.8-3.4-1.1-3.3-1.7-5.3-.6-1.9-1.7-9-1.7-9l-.9-7.1s-.4-5 .4-5.6c.8-.6 3.4.5 3.4.5s3.8 1.4 6.8 3.2c3 1.8 11.1 9.6 11.1 9.6l11.5 11.7s6.1 6.5 9.5 10.2 7.5 10.2 7.5 10.2 6.1 9.3 7.7 11.9c1.6 2.5 4 5.8 5.6 8.7 1.6 2.9 2.4 8.4 5 8.7 2.5.3 7.1-8.9 7.1-8.9l11.7-16.1 15.9-19.2 10.1-12.6 10.5-11.9 7-6.7s3.4-2.8 5.2-3.8c1.9-.9 4.3-2.2 6-2.4 1.6-.2 4.2 2.4 6.4 7.3s5 17.1 5 17.1 3.9 20.1 4.1 23.7c.2 3.6.3 13.9-1.1 22.5-1.4 8.6-6.7 22-6.7 22s-4.1 9.7-7.8 15.5c-3.7 5.8-11 12.7-11 12.7s-3.1 3.4-10.5 7.8c-7.4 4.3-17.8 9.4-17.8 9.4v9.4l3.2 30.2 2.3 21.6 3.2 12.7 14.2 19.6 15.1 20.8 11 19.2 7.6 13.9c47.2-28.7 78.7-80.6 78.7-139.8C327 73.2 253.8 0 163.5 0z" fill="rgba(52, 73, 94, 1)" stroke="none"/>
</svg>
</g></svg></g></g>
<!-- /image 22835 -->

<!-- image 71655 -->
<g id="transformed-71655" data-image="71655" transform="translate(158.58, 176.06) rotate(0, 42.5, 41.5)"><g><svg version="1.1" width="85px" height="83px" viewBox="0 0 85 83"><g id="original-71655"><svg xmlns="http://www.w3.org/2000/svg" id="Layer_2" viewBox="0 0 327 321.1" xmlns:xlink="http://www.w3.org/1999/xlink" version="1.1" preserveAspectRatio="xMidYMid meet">
  <path d="M132.3 129.2c.4.2.5.4.2.9-.1.1-.2.3-.3.4-.7.5-1.3 1-2 1.4-.3.2-.5.4-.5.8 0 .3-.1.5-.1.8-.8 3.6-2.2 7-4.6 9.9-1.5 1.9-3.4 3.3-5.7 4.1-2.2.8-4.4 1.1-6.7 1.2-.1 0-.2 0-.3.1h-2.6c-.1 0-.2 0-.3.1h-.9c-.4 0-.7-.1-1.1-.1-.9-.1-1.7-.2-2.6-.3v-.1c.7 0 1.4.1 2.1 0 1.9 0 3.9-.1 5.8-.2 1.8-.1 3.6-.5 5.4-1.1 1.9-.6 3.3-1.8 4.6-3.2 2.4-2.7 3.9-6 4.7-9.5.2-.7.2-1.4.4-2.1 0-.2 0-.3-.2-.4-2.2-1.2-4.5-2.1-7-2.6-2.1-.5-4.2-.6-6.3-.4-3.5.4-6.4 1.9-8.9 4.3-2.3 2.3-3.9 5.1-5.1 8.1-.3.8-.6 1.6-.9 2.3-.1.3-.2.5-.4.7-.6.7-1.8.7-2.4 0l-.1-.1v-.1s.1 0 .1-.1c.5-.6 1-1.3 1.4-1.9.1-.1.1-.2.2-.3.8-2.1 1.7-4.2 2.9-6.1 0-.1 0-.1.1-.2-.1.1-.2.1-.2.1-1.1 1-2.1 2.1-3 3.2-.1.1-.2.1-.3.2l-.1-.1c.1-.1.1-.3.2-.4 2.2-4.2 5.3-7.7 9.3-10.3 2-1.3 4.2-2.3 6.5-2.9 1.4-.4 2.9-.7 4.4-.8.3 0 .5-.1.8-.1h.7c.1 0 .2.1.3.1h1.3c.1 0 .2 0 .3-.1h.7l.1.1c1.4.2 2.8.3 4.2.5.5.1 1 .2 1.4.3v.1c-1.8.3-3.6.6-5.4.8.1.1.2.1.2.1.7.1 1.5.3 2.2.4 1.8.4 3.6 1 5.3 1.7.8.1 1.5.4 2.2.8z" fill="rgba(52, 73, 94, 1)" stroke="none" id="XMLID_1_"/>
  <path d="M163.5 0C73.2 0 0 73.2 0 163.5 0 238.7 50.7 302 119.8 321.1L118 316l-7.3-11.8-3.7-10.6-2.3-15.1-1.5-15.1 1.5-15.4 3.6-16.9 10.5-17.6 6-11.4s.2-8.1-.9-10.6-2.4-4.2-4.6-5.3c-2.2-1.1-6.9-2.4-10.1-2.9-3.2-.4-14.2-1.2-14.2-1.2l-17.8-.8-16.9-1.6s-2.2-.2-3.9-.9c-1.7-.7-3.1-2.8-3.1-2.8l-2.4-3-1.4-1.8-3.5-5-.9-2v-1.7c0-.4 3.4-1.4 3.4-1.4l8.1-3.1 9-4.5 5.9-5.1 4.8-5.7s3.5-5 4.8-6.9c1.3-1.9 3.9-8.9 3.9-8.9s4.2-7.6 6-9.6c1.8-2.1 2.8-2.1 3.7-3.6s.2-11.6.2-11.6l-.2-18.4.3-13.9-.7-9.6s-.3-4.9-1-8.3c-.8-3.4-1.1-3.3-1.7-5.3-.6-1.9-1.7-9-1.7-9l-.9-7.1s-.4-5 .4-5.6c.8-.6 3.4.5 3.4.5s3.8 1.4 6.8 3.2c3 1.8 11.1 9.6 11.1 9.6l11.5 11.7s6.1 6.5 9.5 10.2 7.5 10.2 7.5 10.2 6.1 9.3 7.7 11.9c1.6 2.5 4 5.8 5.6 8.7 1.6 2.9 2.4 8.4 5 8.7 2.5.3 7.1-8.9 7.1-8.9l11.7-16.1 15.9-19.2 10.1-12.6 10.5-11.9 7-6.7s3.4-2.8 5.2-3.8c1.9-.9 4.3-2.2 6-2.4 1.6-.2 4.2 2.4 6.4 7.3s5 17.1 5 17.1 3.9 20.1 4.1 23.7c.2 3.6.3 13.9-1.1 22.5-1.4 8.6-6.7 22-6.7 22s-4.1 9.7-7.8 15.5c-3.7 5.8-11 12.7-11 12.7s-3.1 3.4-10.5 7.8c-7.4 4.3-17.8 9.4-17.8 9.4v9.4l3.2 30.2 2.3 21.6 3.2 12.7 14.2 19.6 15.1 20.8 11 19.2 7.6 13.9c47.2-28.7 78.7-80.6 78.7-139.8C327 73.2 253.8 0 163.5 0z" fill="rgba(52, 73, 94, 1)" stroke="none"/>
</svg>
</g></svg></g></g>
<!-- /image 71655 -->
</defs><rect x="0" y="0" width="250" height="250" fill="rgba(44, 62, 80, 1)"></rect><use xlink:href="#transformed-22835" transform="translate(-250, -250)"></use><use xlink:href="#transformed-22835" transform="translate(0, -250)"></use><use xlink:href="#transformed-22835" transform="translate(250, -250)"></use><use xlink:href="#transformed-22835" transform="translate(-250, 0)"></use><use xlink:href="#transformed-22835" transform="translate(0, 0)"></use><use xlink:href="#transformed-22835" transform="translate(250, 0)"></use><use xlink:href="#transformed-22835" transform="translate(-250, 250)"></use><use xlink:href="#transformed-22835" transform="translate(0, 250)"></use><use xlink:href="#transformed-22835" transform="translate(250, 250)"></use><use xlink:href="#transformed-71655" transform="translate(-250, -250)"></use><use xlink:href="#transformed-71655" transform="translate(0, -250)"></use><use xlink:href="#transformed-71655" transform="translate(250, -250)"></use><use xlink:href="#transformed-71655" transform="translate(-250, 0)"></use><use xlink:href="#transformed-71655" transform="translate(0, 0)"></use><use xlink:href="#transformed-71655" transform="translate(250, 0)"></use><use xlink:href="#transformed-71655" transform="translate(-250, 250)"></use><use xlink:href="#transformed-71655" transform="translate(0, 250)"></use><use xlink:href="#transformed-71655" transform="translate(250, 250)"></use></svg>