<?xml version="1.0" encoding="utf-8"?>
<!-- Generator: Adobe Illustrator 19.0.0, SVG Export Plug-In . SVG Version: 6.00 Build 0)  -->
<svg version="1.1" id="Layer_2" xmlns="http://www.w3.org/2000/svg" xmlns:xlink="http://www.w3.org/1999/xlink" x="0px" y="0px"
	 viewBox="0 0 327 321.1" style="enable-background:new 0 0 327 321.1;" xml:space="preserve">
<style type="text/css">
	.st0{fill:#1ABC9C;}
</style>
<g>
	<g>
		<g id="XMLID_1_">
			<g>
				<path class="st0" d="M132.3,129.2c0.4,0.2,0.5,0.4,0.2,0.9c-0.1,0.1-0.2,0.3-0.3,0.4c-0.7,0.5-1.3,1-2,1.4
					c-0.3,0.2-0.5,0.4-0.5,0.8c0,0.3-0.1,0.5-0.1,0.8c-0.8,3.6-2.2,7-4.6,9.9c-1.5,1.9-3.4,3.3-5.7,4.1c-2.2,0.8-4.4,1.1-6.7,1.2
					c-0.1,0-0.2,0-0.3,0.1c-0.3,0-0.7,0-1,0c-0.1,0-0.2,0-0.3,0c-0.4,0-0.9,0-1.3,0c-0.1,0-0.2,0-0.3,0.1c-0.3,0-0.6,0-0.9,0
					c-0.4,0-0.7-0.1-1.1-0.1c-0.9-0.1-1.7-0.2-2.6-0.3c0,0,0-0.1,0-0.1c0.7,0,1.4,0.1,2.1,0c1.9,0,3.9-0.1,5.8-0.2
					c1.8-0.1,3.6-0.5,5.4-1.1c1.9-0.6,3.3-1.8,4.6-3.2c2.4-2.7,3.9-6,4.7-9.5c0.2-0.7,0.2-1.4,0.4-2.1c0-0.2,0-0.3-0.2-0.4
					c-2.2-1.2-4.5-2.1-7-2.6c-2.1-0.5-4.2-0.6-6.3-0.4c-3.5,0.4-6.4,1.9-8.9,4.3c-2.3,2.3-3.9,5.1-5.1,8.1c-0.3,0.8-0.6,1.6-0.9,2.3
					c-0.1,0.3-0.2,0.5-0.4,0.7c-0.6,0.7-1.8,0.7-2.4,0c0,0-0.1-0.1-0.1-0.1c0,0,0-0.1,0-0.1c0,0,0.1,0,0.1-0.1
					c0.5-0.6,1-1.3,1.4-1.9c0.1-0.1,0.1-0.2,0.2-0.3c0.8-2.1,1.7-4.2,2.9-6.1c0-0.1,0-0.1,0.1-0.2c-0.1,0.1-0.2,0.1-0.2,0.1
					c-1.1,1-2.1,2.1-3,3.2c-0.1,0.1-0.2,0.1-0.3,0.2c0,0,0,0-0.1-0.1c0.1-0.1,0.1-0.3,0.2-0.4c2.2-4.2,5.3-7.7,9.3-10.3
					c2-1.3,4.2-2.3,6.5-2.9c1.4-0.4,2.9-0.7,4.4-0.8c0.3,0,0.5-0.1,0.8-0.1c0.2,0,0.4,0,0.7,0c0.1,0,0.2,0.1,0.3,0.1
					c0.4,0,0.9,0,1.3,0c0.1,0,0.2,0,0.3-0.1c0.2,0,0.5,0,0.7,0c0,0,0.1,0.1,0.1,0.1c1.4,0.2,2.8,0.3,4.2,0.5c0.5,0.1,1,0.2,1.4,0.3
					c0,0,0,0,0,0.1c-1.8,0.3-3.6,0.6-5.4,0.8c0.1,0.1,0.2,0.1,0.2,0.1c0.7,0.1,1.5,0.3,2.2,0.4c1.8,0.4,3.6,1,5.3,1.7
					C130.9,128.5,131.6,128.8,132.3,129.2z"/>
			</g>
			<g>
			</g>
		</g>
	</g>
	<path class="st0" d="M163.5,0C73.2,0,0,73.2,0,163.5C0,238.7,50.7,302,119.8,321.1L118,316l-7.3-11.8l-3.7-10.6l-2.3-15.1
		l-1.5-15.1l1.5-15.4l3.6-16.9l10.5-17.6l6-11.4c0,0,0.2-8.1-0.9-10.6c-1.1-2.5-2.4-4.2-4.6-5.3c-2.2-1.1-6.9-2.4-10.1-2.9
		c-3.2-0.4-14.2-1.2-14.2-1.2l-17.8-0.8l-16.9-1.6c0,0-2.2-0.2-3.9-0.9c-1.7-0.7-3.1-2.8-3.1-2.8l-2.4-3l0,0l0,0l-1.4-1.8l-3.5-5
		l-0.9-2c0,0,0-1.2,0-1.7c0-0.4,3.4-1.4,3.4-1.4l8.1-3.1l9-4.5l5.9-5.1l4.8-5.7c0,0,3.5-5,4.8-6.9c1.3-1.9,3.9-8.9,3.9-8.9
		s4.2-7.6,6-9.6c1.8-2.1,2.8-2.1,3.7-3.6s0.2-11.6,0.2-11.6l-0.2-18.4l0.3-13.9l-0.7-9.6c0,0-0.3-4.9-1-8.3
		c-0.8-3.4-1.1-3.3-1.7-5.3c-0.6-1.9-1.7-9-1.7-9l-0.9-7.1c0,0-0.4-5,0.4-5.6c0.8-0.6,3.4,0.5,3.4,0.5s3.8,1.4,6.8,3.2
		c3,1.8,11.1,9.6,11.1,9.6l11.5,11.7c0,0,6.1,6.5,9.5,10.2s7.5,10.2,7.5,10.2s6.1,9.3,7.7,11.9c1.6,2.5,4,5.8,5.6,8.7
		c1.6,2.9,2.4,8.4,5,8.7c2.5,0.3,7.1-8.9,7.1-8.9l11.7-16.1l15.9-19.2l10.1-12.6l10.5-11.9l7-6.7c0,0,3.4-2.8,5.2-3.8
		c1.9-0.9,4.3-2.2,6-2.4c1.6-0.2,4.2,2.4,6.4,7.3c2.2,4.9,5,17.1,5,17.1s3.9,20.1,4.1,23.7c0.2,3.6,0.3,13.9-1.1,22.5
		c-1.4,8.6-6.7,22-6.7,22s-4.1,9.7-7.8,15.5c-3.7,5.8-11,12.7-11,12.7s-3.1,3.4-10.5,7.8c-7.4,4.3-17.8,9.4-17.8,9.4v9.4l3.2,30.2
		l2.3,21.6l3.2,12.7l14.2,19.6l15.1,20.8l11,19.2l7.6,13.9c47.2-28.7,78.7-80.6,78.7-139.8C327,73.2,253.8,0,163.5,0z"/>
</g>
</svg>
