<?xml version="1.0" encoding="utf-8"?>
<!-- Generator: Adobe Illustrator 19.0.0, SVG Export Plug-In . SVG Version: 6.00 Build 0)  -->
<svg version="1.1" id="Layer_2" xmlns="http://www.w3.org/2000/svg" xmlns:xlink="http://www.w3.org/1999/xlink" x="0px" y="0px"
	 viewBox="-348 224.9 327 321.1" style="enable-background:new -348 224.9 327 321.1;" xml:space="preserve">
<style type="text/css">
	.st0{fill:#1ABC9C;}
</style>
<g>
	<path class="st0" d="M-166.6,224.8c4.4,0.2,8.7,0.6,12.9,1.2C-157.9,225.4-162.2,225-166.6,224.8z"/>
	<path class="st0" d="M-109,499l-15.1-21.1l-14.2-19.9l-3.2-12.9l-2.3-21.9l-3.2-30.7V383c0,0,10.4-5.2,17.8-9.5
		c7.4-4.5,10.5-7.9,10.5-7.9s7.3-7,11-12.9c3.7-5.9,7.8-15.7,7.8-15.7s5.3-13.6,6.7-22.3c1.4-8.7,1.3-19.2,1.1-22.8
		c-0.2-3.7-4.1-24.1-4.1-24.1s-2.8-12.4-5-17.4c-2.2-5-4.8-7.6-6.4-7.4c-1.7,0.2-4.1,1.5-6,2.4c-1.8,1-5.2,3.9-5.2,3.9l-7,6.8
		l-10.5,12.1l-10.1,12.8l-15.9,19.5l-11.7,16.3c0,0-4.6,9.3-7.1,9c-2.6-0.3-3.4-5.9-5-8.8c-1.6-2.9-4-6.3-5.6-8.8
		c-1.6-2.6-7.7-12.1-7.7-12.1s-4.1-6.6-7.5-10.4c-3.4-3.8-9.5-10.4-9.5-10.4l-11.5-11.9c0,0-8.1-7.9-11.1-9.7
		c-3-1.8-6.8-3.2-6.8-3.2s-2.6-1.1-3.4-0.5c-0.8,0.6-0.4,5.7-0.4,5.7l0.9,7.2c0,0,1.1,7.2,1.7,9.1c0.6,2,0.9,1.9,1.7,5.4
		c0.7,3.5,1,8.4,1,8.4l0.7,9.7l-0.3,14.1l0.2,18.7c0,0,0.7,10.3-0.2,11.8c-0.9,1.5-1.9,1.5-3.7,3.7c-1.8,2-6,9.7-6,9.7
		s-2.6,7.1-3.9,9c-1.3,1.9-4.8,7-4.8,7l-4.8,5.8l-5.9,5.2l-9,4.6l-8.1,3.1c0,0-3.4,1-3.4,1.4c0,0.5,0,1.7,0,1.7l0.9,2l3.5,5.1
		l1.4,1.8l2.4,3c0,0,1.4,2.1,3.1,2.8s3.9,0.9,3.9,0.9l16.9,1.6l17.8,0.8c0,0,11,0.8,14.2,1.2c3.2,0.5,7.9,1.8,10.1,2.9
		c2.2,1.1,3.5,2.8,4.6,5.4s0.9,10.8,0.9,10.8l-6,11.6l-10.5,17.9l-3.6,17.2l-1.5,15.6l1.5,15.3l2.3,15.3l2.2,6.6
		c17.4,8.5,36.7,13.2,56.9,13.2c27.3,0,52.7-8.5,74.4-23.3l-0.3-0.6L-109,499z M-205.9,356.7c-0.1,0.1-0.2,0.3-0.3,0.4
		c-0.7,0.5-1.3,1-2,1.4c-0.3,0.2-0.5,0.4-0.5,0.8c0,0.3-0.1,0.5-0.1,0.8c-0.8,3.7-2.2,7.1-4.6,10.1c-1.5,1.9-3.4,3.4-5.7,4.2
		c-2.2,0.8-4.4,1.1-6.7,1.2c-0.1,0-0.2,0-0.3,0.1c-0.3,0-0.7,0-1,0c-0.1,0-0.2,0-0.3,0c-0.4,0-0.9,0-1.3,0c-0.1,0-0.2,0-0.3,0.1
		c-0.3,0-0.6,0-0.9,0c-0.4,0-0.7-0.1-1.1-0.1c-0.9-0.1-1.7-0.2-2.6-0.3v-0.1c0.7,0,1.4,0.1,2.1,0c1.9,0,3.9-0.1,5.8-0.2
		c1.8-0.1,3.6-0.5,5.4-1.1c1.9-0.6,3.3-1.8,4.6-3.2c2.4-2.7,3.9-6.1,4.7-9.6c0.2-0.7,0.2-1.4,0.4-2.1c0-0.2,0-0.3-0.2-0.4
		c-2.2-1.2-4.5-2.1-7-2.6c-2.1-0.5-4.2-0.6-6.3-0.4c-3.5,0.4-6.4,1.9-8.9,4.4c-2.3,2.3-3.9,5.2-5.1,8.2c-0.3,0.8-0.6,1.6-0.9,2.3
		c-0.1,0.3-0.2,0.5-0.4,0.7c-0.6,0.7-1.8,0.7-2.4,0l-0.1-0.1v-0.1c0,0,0.1,0,0.1-0.1c0.5-0.6,1-1.3,1.4-1.9c0.1-0.1,0.1-0.2,0.2-0.3
		c0.8-2.1,1.7-4.3,2.9-6.2c0-0.1,0-0.1,0.1-0.2c-0.1,0.1-0.2,0.1-0.2,0.1c-1.1,1-2.1,2.1-3,3.2c-0.1,0.1-0.2,0.1-0.3,0.2
		c0,0,0,0-0.1-0.1c0.1-0.1,0.1-0.3,0.2-0.4c2.2-4.3,5.3-7.8,9.3-10.5c2-1.3,4.2-2.3,6.5-2.9c1.4-0.4,2.9-0.7,4.4-0.8
		c0.3,0,0.5-0.1,0.8-0.1c0.2,0,0.4,0,0.7,0c0.1,0,0.2,0.1,0.3,0.1c0.4,0,0.9,0,1.3,0c0.1,0,0.2,0,0.3-0.1c0.2,0,0.5,0,0.7,0l0.1,0.1
		c1.4,0.2,2.8,0.3,4.2,0.5c0.5,0.1,1,0.2,1.4,0.3c0,0,0,0,0,0.1c-1.8,0.3-3.6,0.6-5.4,0.8c0.1,0.1,0.2,0.1,0.2,0.1
		c0.7,0.1,1.5,0.3,2.2,0.4c1.8,0.4,3.6,1,5.3,1.7c0.8,0.1,1.5,0.4,2.2,0.8C-205.7,356-205.6,356.2-205.9,356.7z"/>
	<path class="st0" d="M-168.7,224.8c0.7,0,1.4,0,2.1,0.1C-167.3,224.8-168,224.8-168.7,224.8z"/>
	<path class="st0" d="M-166.6,224.8C-166.6,224.8-166.6,224.8-166.6,224.8C-166.6,224.8-166.6,224.8-166.6,224.8z"/>
	<path class="st0" d="M-314.7,383.6c0-87.7,63.8-158.9,142.6-158.9c1.1,0,2.3,0,3.4,0c-2.1-0.1-4.2-0.1-6.2-0.1
		c-90.1,0-163,74.3-163,166c0,76.3,50.6,140.6,119.5,160l-1.8-5.2l-7.3-12l-1.4-4.2C-279.4,504.8-314.7,448.8-314.7,383.6z"/>
	<path class="st0" d="M-153.6,226c70,10.1,124.1,76.8,124.1,157.5c0,57.4-27.3,107.6-68.2,135.6l7.3,13.5
		C-43.4,503.5-12,450.8-12,390.7C-11.9,306.3-73.6,236.7-153.6,226z"/>
</g>
</svg>
