<?xml version="1.0" encoding="utf-8"?>
<!-- Generator: Adobe Illustrator 19.0.0, SVG Export Plug-In . SVG Version: 6.00 Build 0)  -->
<svg version="1.1" id="Layer_2" xmlns="http://www.w3.org/2000/svg" xmlns:xlink="http://www.w3.org/1999/xlink" x="0px" y="0px"
	 viewBox="-295 303.7 432.8 162.3" style="enable-background:new -295 303.7 432.8 162.3;" xml:space="preserve">
<style type="text/css">
	.st0{fill:#ECF0F1;}
	.st1{font-family:'SegoeUI-LightItalic';}
	.st2{font-size:63.0254px;}
	.st3{fill:#FFFFFF;}
	.st4{font-family:'Oswald-Regular';}
	.st5{font-size:76.65px;}
	.st6{fill:#FFFFFF;stroke:#FFFFFF;stroke-width:5;stroke-miterlimit:10;}
</style>
<text transform="matrix(1 0 0 1 -120.3786 452.1979)" class="st0 st1 st2">Freelance</text>
<text transform="matrix(1.1039 0 0 1 -111.7888 386.1852)" class="st3 st4 st5">Fennec</text>
<line class="st6" x1="-129.8" y1="395.9" x2="135.3" y2="395.9"/>
<g>
	<path class="st3" d="M-209,305.6c2.1,0.1,4.2,0.3,6.3,0.6C-204.8,305.9-206.9,305.7-209,305.6z"/>
	<path class="st3" d="M-181,439.1l-7.4-10.3l-6.9-9.7l-1.6-6.3l-1.1-10.7l-1.6-14.9v-4.6c0,0,5.1-2.5,8.7-4.6
		c3.6-2.2,5.1-3.8,5.1-3.8s3.6-3.4,5.4-6.3s3.8-7.6,3.8-7.6s2.6-6.6,3.3-10.9c0.7-4.3,0.6-9.3,0.5-11.1c-0.1-1.8-2-11.7-2-11.7
		s-1.4-6-2.4-8.5c-1.1-2.4-2.3-3.7-3.1-3.6c-0.8,0.1-2,0.7-2.9,1.2c-0.9,0.5-2.5,1.9-2.5,1.9l-3.4,3.3l-5.1,5.9l-4.9,6.2l-7.7,9.5
		l-5.7,7.9c0,0-2.2,4.5-3.5,4.4c-1.3-0.1-1.7-2.9-2.4-4.3s-1.9-3.1-2.7-4.3c-0.8-1.3-3.7-5.9-3.7-5.9s-2-3.2-3.7-5.1
		s-4.6-5.1-4.6-5.1l-5.6-5.8c0,0-3.9-3.8-5.4-4.7c-1.5-0.9-3.3-1.6-3.3-1.6s-1.3-0.5-1.7-0.2c-0.4,0.3-0.2,2.8-0.2,2.8l0.4,3.5
		c0,0,0.5,3.5,0.8,4.4c0.3,1,0.4,0.9,0.8,2.6c0.3,1.7,0.5,4.1,0.5,4.1l0.3,4.7l-0.1,6.9l0.1,9.1c0,0,0.3,5-0.1,5.7
		c-0.4,0.7-0.9,0.7-1.8,1.8c-0.9,1-2.9,4.7-2.9,4.7s-1.3,3.5-1.9,4.4c-0.6,0.9-2.3,3.4-2.3,3.4l-2.3,2.8l-3.1,2.7l-4.4,2.2l-3.9,1.5
		c0,0-1.7,0.5-1.7,0.7s0,0.8,0,0.8l0.4,1l1.7,2.5l0.7,0.9l1.2,1.5c0,0,0.7,1,1.5,1.4c0.8,0.4,1.9,0.4,1.9,0.4l8.2,0.8l8.7,0.4
		c0,0,5.4,0.4,6.9,0.6c1.6,0.2,3.8,0.9,4.9,1.4c1.1,0.5,1.7,1.4,2.2,2.6c0.5,1.3,0.4,5.3,0.4,5.3l-2.9,5.6l-5.1,8.7l-1.8,8.4
		l-0.7,7.6l0.7,7.4l1.1,7.4l1.1,3.2c8.5,4.1,17.9,6.4,27.7,6.4c13.3,0,25.7-4.1,36.2-11.3l-0.1-0.3L-181,439.1z M-228.2,369.8
		c0,0-0.1,0.1-0.1,0.2c-0.3,0.2-0.6,0.5-1,0.7c-0.1,0.1-0.2,0.2-0.2,0.4c0,0.1,0,0.2,0,0.4c-0.4,1.8-1.1,3.5-2.2,4.9
		c-0.7,0.9-1.7,1.7-2.8,2c-1.1,0.4-2.1,0.5-3.3,0.6h-0.1c-0.1,0-0.3,0-0.5,0h-0.1c-0.2,0-0.4,0-0.6,0h-0.1c-0.1,0-0.3,0-0.4,0
		c-0.2,0-0.3,0-0.5,0c-0.4,0-0.8-0.1-1.3-0.1l0,0c0.3,0,0.7,0,1,0c0.9,0,1.9,0,2.8-0.1c0.9,0,1.8-0.2,2.6-0.5
		c0.9-0.3,1.6-0.9,2.2-1.6c1.2-1.3,1.9-3,2.3-4.7c0.1-0.3,0.1-0.7,0.2-1c0-0.1,0-0.1-0.1-0.2c-1.1-0.6-2.2-1-3.4-1.3
		c-1-0.2-2-0.3-3.1-0.2c-1.7,0.2-3.1,0.9-4.3,2.1c-1.1,1.1-1.9,2.5-2.5,4c-0.1,0.4-0.3,0.8-0.4,1.1c0,0.1-0.1,0.2-0.2,0.3
		c-0.3,0.3-0.9,0.3-1.2,0l0,0l0,0l0,0c0.2-0.3,0.5-0.6,0.7-0.9c0,0,0-0.1,0.1-0.1c0.4-1,0.8-2.1,1.4-3c0,0,0,0,0-0.1h-0.1
		c-0.5,0.5-1,1-1.5,1.6c0,0-0.1,0-0.1,0.1l0,0c0,0,0-0.1,0.1-0.2c1.1-2.1,2.6-3.8,4.5-5.1c1-0.6,2-1.1,3.2-1.4
		c0.7-0.2,1.4-0.3,2.1-0.4c0.1,0,0.2,0,0.4,0c0.1,0,0.2,0,0.3,0h0.1c0.2,0,0.4,0,0.6,0h0.1c0.1,0,0.2,0,0.3,0l0,0
		c0.7,0.1,1.4,0.1,2,0.2c0.2,0,0.5,0.1,0.7,0.1l0,0c-0.9,0.1-1.8,0.3-2.6,0.4h0.1c0.3,0,0.7,0.1,1.1,0.2c0.9,0.2,1.8,0.5,2.6,0.8
		c0.4,0,0.7,0.2,1.1,0.4C-228.1,369.4-228,369.5-228.2,369.8z"/>
	<path class="st3" d="M-210.1,305.6c0.3,0,0.7,0,1,0C-209.4,305.6-209.7,305.6-210.1,305.6z"/>
	<path class="st3" d="M-209,305.6L-209,305.6L-209,305.6z"/>
	<path class="st3" d="M-281.2,382.9c0-42.7,31.1-77.4,69.4-77.4c0.5,0,1.1,0,1.7,0c-1,0-2,0-3,0c-43.9,0-79.4,36.2-79.4,80.8
		c0,37.1,24.6,68.5,58.2,77.9l-0.9-2.5l-3.6-5.8l-0.7-2C-264,441.9-281.2,414.6-281.2,382.9z"/>
	<path class="st3" d="M-202.7,306.2c34.1,4.9,60.4,37.4,60.4,76.7c0,27.9-13.3,52.4-33.2,66l3.6,6.6c22.9-14.2,38.2-39.8,38.2-69.1
		C-133.7,345.3-163.8,311.4-202.7,306.2z"/>
</g>
</svg>
